<svg xmlns="http://www.w3.org/2000/svg" viewBox="0 0 400 400">
  
<g transform="matrix(2,0,0,2,0,0)"><g>
    <path d="M111.88,162.52s.56-5.28.51-5.29l1.7.41,2.93-28-8.88-12.37-1.54,15.06a9.56,9.56,0,0,1-4.34,7.41,9.22,9.22,0,0,1-9,.68L65.43,127.68l-.54,2L60,127.43l1.5-4.81a19.94,19.94,0,0,0-4.91-1.76c9.12,43.35,10.55,50.39,10.86,51.47.09.29.13.27.18.27l47-1.42a.19.19,0,0,0,0-.37l.84-7.43Z" style="fill: #3B29AB"></path>
    <path d="M41.37,48.61c.16.79,1.18,5.79,2.64,13,11,.85,35,2.65,46.06,3.27.12,0,1.84-.22,2.6-.29,1.54-.15,2.6-.23,3-.31,3.28-.63,2.63-4.65,2.63-4.65-.72-2.79-6.69-7.44-6.69-7.44-2.3-2.33.7-2.77.7-2.77a1.36,1.36,0,0,1,1.45-2c.17.08.44-.31.6-.57L41.55,48.39A.18.18,0,0,0,41.37,48.61Z" style="fill: #3B29AB"></path>
    <path d="M115,91.57c14.5,25.64,13.09,23,13.26,23.82a.19.19,0,0,0,.37-.08l-9.3-44.21L115,73.65Z" style="fill: #3B29AB"></path>
    <path d="M156.79,19.31a.19.19,0,0,0-.29-.12l-42.68,27L102,46.57c1.24,1.63,5.84,8,3.77,10.72a3.91,3.91,0,0,1-3,1.31,3.76,3.76,0,0,0,3.52,3.59l10-5.69-2.11-10,42.32-26.8,26,123.45-42.37,26.83-6.64-31.57a.19.19,0,0,0-.37.08c.16.8.37-1.71-2.19,20.82l1.52.07-.41,5.19-3.76.12a31.33,31.33,0,0,0-.39,6.14l12.12-.36s0,0,.18-.09c.72-.42,5.68-3.61,42.62-27C183,143.24,184.14,148.84,156.79,19.31Z" style="fill: #3B29AB"></path>
    <path d="M53.85,107.91c0,.1,3.16-.86,3.16-.86l9.47,4.4,2.36-3.94,5,2.1c-.25.26-1.28,1.93-1.28,1.93l14.86,6.7C83.86,99.26,92,92.55,92,92.55L89.24,79.27,47.09,74Z" style="fill: #3B29AB"></path>
    <path d="M149,13.14c-.18-3.76-1.2-4.49-2.07-.44a22.63,22.63,0,0,1-.85,3.34c-.08-1.53-.23-3.83-.38-6-.26-3.79-1.42-4.3-2.19.07a24.68,24.68,0,0,1-1.18,4.75c-.34-2.09-.9-5.3-1.47-7.33-1-3.51-2.15-3.46-2.22.48,0,.55-.15,5.7-.19,7.06-.45-1.12-1.06-2.66-1.63-4.24-1.18-3.21-2.81-3.13-2,.78.09.43.88,4.76,1.12,6,.14.79.22,2.76-.44,3-2,.73-6.8-1.11-7.51.5-.46,1.05,2.93,2,5.17,2.9,1.3.52,2,2.64,1.74,4.1-1,5.3-.31,1.32-3.38,20L114.93,57.3l.17,16.36,25.25-14.84a9.81,9.81,0,0,0,4.79-7.4c.63-5.82,1.63-15,2.51-21.54A134.9,134.9,0,0,0,149,13.14Z" style="fill: #FFD0C7"></path>
    <path d="M90.09,64.86,41.61,61.47c-1.56-.12-3.69-1.27-4.09-2.55-.69-2.2-1.33-5.44-2.47-5.28-1.75.23-.36,5-1.33,6.52-.34.54-2.43,0-3.18-.35l-6.18-2.46c-4-1.66-4.25-.24-1,1.59,2.55,1.45,4.47,2.65,5.05,3-1.88-.51-5.6-1.49-7.79-2.05-4.27-1.09-4.26.34-.73,1.7,3.25,1.25,7.15,2.81,7.43,2.93-1.59-.21-4.22-.59-6.75-1.1-4.35-.88-4.15.44-.58,1.73,2.74,1,5.54,1.86,6.59,2.12a34.65,34.65,0,0,1-4.57-.4c-4.43-.7-4.13.62-.33,1.77,2.68.82,4.35,1.1,9.3,2.45a136.41,136.41,0,0,0,14.23,2.72l44.06,5.44,1.38,6.52C96.88,89.08,90.09,64.86,90.09,64.86Z" style="fill: #FFD0C7"></path>
    <path d="M106.24,62.19a3.83,3.83,0,0,1-3.45-3.6c2.38-.07,5.83-1.65,1.48-8.9-4.71-7.84-7.22-1.67-6.78,1.71,0,.62-.31.78-1.31.13-2.09-1.35-3.35,2.18.52,3.64.73.28,3.63,7.87-.75,9l-1.09.15,2,9,13.23-1.15V60Z" style="fill: #FFD0C7"></path>
    <path d="M47.75,29.46A7.07,7.07,0,0,0,38.15,24a3.9,3.9,0,1,0-4.41,5.85,7.07,7.07,0,1,0,14-.43ZM41.86,37.2A6.7,6.7,0,0,1,34.11,30a3.9,3.9,0,0,0,4.23-5.61A6.69,6.69,0,1,1,41.86,37.2Z" style="fill: #3B29AB"></path>
    <path d="M155.75,172.18a.19.19,0,0,1,.1-.36c9.2,2.81,8.42-10.5,17.93-7.59a.19.19,0,0,1,.12.24.18.18,0,0,1-.23.12C164.38,161.75,165.34,175.12,155.75,172.18Z" style="fill: #3B29AB"></path>
    <path d="M39.32,137.76a.19.19,0,0,1,0-.37l3.47-.78a.19.19,0,1,1,.08.37C40,137.63,39.42,137.76,39.32,137.76Z" style="fill: #3B29AB"></path>
    <path d="M49,135.59a.19.19,0,0,1,0-.37l3.47-.78a.19.19,0,0,1,.08.37C49.58,135.46,49.05,135.59,49,135.59Z" style="fill: #3B29AB"></path>
    <path d="M45,133.06l-.78-3.47a.18.18,0,0,1,.14-.22.19.19,0,0,1,.23.14l.78,3.47A.19.19,0,0,1,45,133.06Z" style="fill: #3B29AB"></path>
    <path d="M47.17,142.69l-.79-3.47a.19.19,0,0,1,.37-.08l.78,3.47A.18.18,0,1,1,47.17,142.69Z" style="fill: #3B29AB"></path>
    <path d="M43.2,134.6c-.1,0,0,.05-3.1-1.93a.19.19,0,0,1,.2-.32l3,1.9A.19.19,0,0,1,43.2,134.6Z" style="fill: #3B29AB"></path>
    <path d="M51.55,139.87c-.1,0,0,.06-3.11-1.93a.18.18,0,1,1,.2-.31l3,1.9A.18.18,0,0,1,51.55,139.87Z" style="fill: #3B29AB"></path>
    <path d="M47.56,133.62a.19.19,0,0,1-.16-.29l1.9-3a.19.19,0,0,1,.32.2C47.56,133.78,47.71,133.62,47.56,133.62Z" style="fill: #3B29AB"></path>
    <path d="M42.29,142a.19.19,0,0,1-.16-.29l1.9-3a.18.18,0,1,1,.31.2C42.28,142.12,42.43,142,42.29,142Z" style="fill: #3B29AB"></path>
    <path d="M179,73.3c0-.1-.54-.83-2.35-3.72a.19.19,0,0,0-.26-.06L154.47,83.37l2.17-9.63a.19.19,0,0,0-.14-.23l-4.26-1a.19.19,0,0,0-.22.14l-3.44,15.22a2.37,2.37,0,0,0,1.79,2.83c14.93,3.37,15.16,3.44,15.26,3.44a.2.2,0,0,0,.19-.14l1-4.26a.18.18,0,0,0-.15-.22L157,87.38l21.92-13.85A.2.2,0,0,0,179,73.3Z" style="fill: #3B29AB"></path>
    <path d="M172,53.28l3.48-4.92L170.6,45a.19.19,0,0,1,0-.27L174,39.76l-4.95-3.59a.18.18,0,0,1-.05-.26L172.52,31l-5.06-3.58a.19.19,0,0,1-.05-.26.18.18,0,0,1,.27,0l5.21,3.68a.18.18,0,0,1,.05.26L169.46,36l4.95,3.6a.19.19,0,0,1,0,.26L171,44.75l4.91,3.4a.19.19,0,0,1,.05.27l-3.59,5.08A.19.19,0,0,1,172,53.28Z" style="fill: #3B29AB"></path>
    <path d="M176.14,43.3l3.48-4.92L174.71,35a.18.18,0,0,1-.05-.26l3.48-4.93-4.95-3.6a.19.19,0,0,1,0-.26L176.63,21l-5.07-3.57c-.2-.15,0-.46.22-.31L177,20.81a.19.19,0,0,1,0,.26L173.56,26l4.95,3.59a.18.18,0,0,1,.05.26l-3.48,4.93c5.23,3.62,5,3.41,5,3.52s.29-.27-3.62,5.22A.19.19,0,1,1,176.14,43.3Z" style="fill: #3B29AB"></path>
    <path d="M110,77.86l-11.78.91a.19.19,0,0,0-.18.2c.65,8,.79,10.12.85,10.68,0,.23,0,.19.08.21,5.55,3.18,6.92,4,7.29,4.16.2.11.2.08.37-.1.33-.37,1.24-1.47,4.3-5.06a.27.27,0,0,0,.08-.24c0-.46-.18-2.35-.81-10.59A.18.18,0,0,0,110,77.86ZM106.4,93.65l-7.13-4.07-.81-10.45,11.41-.88.8,10.36Z" style="fill: #3B29AB"></path>
    <path d="M95.68,96.08a9,9,0,0,1-5.58,6.16.19.19,0,1,0,.13.35A9.3,9.3,0,0,0,96,96.19.19.19,0,0,0,95.68,96.08Z" style="fill: #3B29AB"></path>
    <path d="M149.15,13.11c-.07-1.49-.31-3.28-1-3.34-1-.09-1.45,3.16-2,5.21-.08-1.4-.2-3.16-.32-4.92-.1-1.44-.37-3.18-1.1-3.21-.93,0-1.38,2.8-1.46,3.25a28.93,28.93,0,0,1-.93,4.05c-.34-2.06-.84-4.83-1.35-6.65-.35-1.24-.9-2.69-1.59-2.69-.91,0-1,2.31-1,3.23,0,.48-.1,4.39-.14,6.21-.4-1-.87-2.23-1.32-3.46-.61-1.65-1.39-2.57-2-2.39s-.77,1.37-.39,3.27c.08.36,1.11,6,1.11,6,.19,1,.14,2.63-.31,2.8-1.9.71-6.83-1.19-7.62.6-.57,1.29,3,2.26,5.27,3.16,1.21.48,1.87,2.52,1.63,3.89C133.27,36,135.74,21,131.29,48L106.2,62a3.41,3.41,0,0,1-2.2-1l0-.06a4,4,0,0,1-1-2.14,4,4,0,0,0,3-1.44c1.09-1.53.57-4.13-1.54-7.74a16.34,16.34,0,0,0-1.44-2.1c-.54-.74-1.74-2.57-2.3-3.43-.4-.61-.08-.1-1.37-2.27a1.55,1.55,0,0,0-2.79,1.31,1.55,1.55,0,0,0-1.69,2,1.54,1.54,0,0,0-1.43,2,1.55,1.55,0,0,0-1.45,2,1.54,1.54,0,0,0-1,2.66c.09.1-.08-.24,3.74,3.3,2.09,1.93,3.19,3.5,3.41,4.52.2,2-.24,3.84-2.17,4.36l-5.84.65L41.62,61.23c-1.47-.11-3.54-1.22-3.92-2.41-.67-2.14-1.29-5.42-2.57-5.42-2.12,0-.62,5.11-1.57,6.61-.21.34-1.94,0-3-.42,0,0-5.83-2.31-6.18-2.46-1.14-.47-3.1-1.16-3.45-.43-.26.53.58,1.41,2.26,2.36l3.88,2.21-6.48-1.59c-1.21-.31-3.28-.71-3.52,0s2,1.75,2.68,2c2.12.82,4.54,1.78,6,2.37-1.39-.2-3.19-.49-5.25-.9s-3.33-.39-3.48.15c-.21.76,1.89,1.61,2.8,1.94,1.21.44,3.49,1.21,5.1,1.68-.92-.06-1.94-.16-3-.32-2.18-.35-3.34-.25-3.46.29-.26,1.14,4.56,2.3,5.74,2.59C27,70.2,29,70.73,30.9,71.25A137.25,137.25,0,0,0,45.17,74l43.91,5.47,2.72,13c-.89.78-7.79,7.48-4.59,25.44l-14.34-6.46c.66-1.07.93-1.45,1-1.63s.06-.13,0-.2-4.4-2-5-2.28a.17.17,0,0,0-.2,0c-.13.15-1.47,2.32-2.31,3.84-9.75-4.53-9.31-4.35-9.42-4.34-.57.11.2,0-5.51,1.45a85.26,85.26,0,0,0-19.71,6.83.18.18,0,0,0,0,.34c1.4.54,2.91,1,4.46,1.48,10.16,2.93,15,2,23.25,5.69l1.58.71c-.33,1-1.27,3.89-1.3,4.12s0,.11.11.19c3.69,1.63,4.65,2.09,5,2.18a.19.19,0,0,0,.24-.12c.15-.58.3-1.16.47-1.74l27.66,12.54a9.64,9.64,0,0,0,13.53-7.81L108.28,118l8.54,11.69-2.89,27.77c-1.79-.42-1.44-.37-1.54-.37h0a.21.21,0,0,0-.14.1c0,.1-.54,5.37-.53,5.47a.2.2,0,0,0,.1.15c.15.06,2,.49,3.46.77-.84,7.41-1.09,9.46-1.14,10.05,0,.28,0,.23,0,.27,4.79,7.1,8.34,14,15.82,21.28a.19.19,0,0,0,.32-.12,87.89,87.89,0,0,0-1.6-18.12,39.6,39.6,0,0,1-.36-10.43l.16-1.65c.2,0,3.54,0,3.7-.13a.25.25,0,0,0,.08-.12c0-.09.52-5.39.51-5.42-.05-.25-.15-.15-1.6-.08l3-26.49a19.37,19.37,0,0,0-2.42-11.83L115.2,91.52V73.76L140.43,59a10,10,0,0,0,4.88-7.54C148,26.71,149.38,17.93,149.15,13.11Zm-5.49-2.94c.51-2.91,1.05-2.94,1.07-2.94s.59.55.74,2.85c.18,2.6.48,6.89.42,7.61a16.11,16.11,0,0,0-3.12-.92c0-.28-.14-1-.29-1.88A19.46,19.46,0,0,0,143.66,10.17ZM138.79,8c0-2.2.42-2.83.61-2.85s.69.45,1.25,2.41c.78,2.8,1.55,7.9,1.73,9.11a13,13,0,0,0-3.14-.08c-.09-.23-.31-.77-.61-1.49C138.65,14.61,138.78,8.65,138.79,8Zm-42,47h-.06c-3.57-1.35-2.55-4.52-.68-3.31.64.41,1,.53,1.31.39a.73.73,0,0,0,.29-.65,1.79,1.79,0,0,0,0-.23c-.16-1.61.37-4.14,1.71-4.93s2.44.58,2.55.64a12.29,12.29,0,0,1,2.18,2.87c2,3.47,2.56,5.93,1.57,7.33-1.34,1.89-5.08,1.19-5.12,1.18s-.37.14,0,.44,1.16.9,3.19,2.48a3.86,3.86,0,0,0,2.52,1.17,36.82,36.82,0,0,0,3.71-2V72L97.06,73.13l-2-8.64.92-.1C100.49,63.19,97.78,55.67,96.82,55ZM19.93,61.39c-2-.77-2.49-1.41-2.45-1.56s.66-.4,3.06.22l8.65,2.11a9.82,9.82,0,0,0-.35,2.32l-1.49-.17C27,64.17,23.13,62.62,19.93,61.39Zm-2.46,2.07c0-.1.62-.37,3,.11a78.65,78.65,0,0,0,8.28,1.28h0A11.46,11.46,0,0,0,29.06,67a16.94,16.94,0,0,0-2.38,0A65.5,65.5,0,0,1,20,65C18,64.2,17.43,63.6,17.47,63.46Zm4.23,5c-2.21-.68-2.82-1.27-2.78-1.41s.6-.38,3,0a36.31,36.31,0,0,0,7.19.37c.13.55.28,1.1.47,1.66a.19.19,0,0,0,.36-.12,10.82,10.82,0,0,1,0-8,.19.19,0,1,0-.35-.13c-.13.34-.24.66-.33,1l-.85-.2-5-2.86c-1.77-1-2.18-1.7-2.1-1.87s.92-.23,3,.62l6.18,2.46s2.9,1.09,3.41.27c1-1.53-.3-6.23,1.2-6.43,1-.14,1.83,3.76,2.26,5.15s2.63,2.55,4.25,2.68L89.93,65c1.42,5.32,4.52,19,2.26,20.76-.34.26-.81.22-1.42-.13l-1.91-9.12a.2.2,0,0,0-.22-.13l-6.57,1.77L45.21,73.6A138.73,138.73,0,0,1,31,70.89C26.09,69.54,24.43,69.26,21.7,68.44Zm43.07,61-4.57-2a74.74,74.74,0,0,1,8.72-19.65l4.57,2A66.63,66.63,0,0,0,64.77,129.43ZM57,107.25l3.29,1.53c-6.17,1.81-14.39,3.41-23.73,7.89-1.41-.41-2.83-.86-4.24-1.38C42.27,110.27,51,109.08,57,107.25Zm75.36,52.11-.48,5a68.4,68.4,0,0,1-19.8-1.9l.48-5A61.86,61.86,0,0,0,132.36,159.36Zm-2.46,35.2c-7.9-7.84-11.77-15.7-15.43-20.87l.41-3.6c3.67,5.28,7.79,12.57,15,20C129.93,191.58,129.94,193.06,129.9,194.56ZM118.83,98.79c-2.83-1-4.33-4.13-4.35-4.16a.19.19,0,0,0-.34.15c.07.15,1.72,3.65,5,4.48l12.31,21.67a18.92,18.92,0,0,1,2.38,11.59l-3,26.56a62.17,62.17,0,0,1-16.47-1.59l2.91-27.88c0-.11.23.23-4-5.54l-3.88-16.37a.19.19,0,0,0-.37,0l-2.61,25a9.27,9.27,0,0,1-13,7.51l-27.7-12.57a66.37,66.37,0,0,1,7-15.85l9.53,4.29c6.77,8.79,6.51,8.5,6.62,8.57a.19.19,0,0,0,.27-.22c-6.57-24,2.94-31.64,3-31.72s.14.13-1.25-6.56c5.17,2.35.89-15.66-.56-21.12l4.4-.49,2,8.85a.18.18,0,0,0,.18.14l13.29-1.14c.1,0,.12-.09.12-.19V60.13l4.42-2.52v34C114.74,91.67,114.83,91.75,118.83,98.79Zm29.68-79.12c-.6,8.47-.77,5.86-3.58,31.72a9.66,9.66,0,0,1-4.69,7.26l-25,14.68-.15-15.93c13.09-7.24,15.7-8.66,16.27-9,.19-.12.26-.18.27-.22l3.38-20c.28-1.53-.47-3.75-1.86-4.3s-5.45-1.8-5.06-2.66c.62-1.41,5.45.33,7.4-.4.88-.33.66-2.66.56-3.22,0,0-1-5.68-1.12-6-.39-1.95-.14-2.76.12-2.84s.94.54,1.53,2.16c.93,2.53,1.94,5,2.25,5.75-.5.06-1,.14-1.59.25a.19.19,0,1,0,.07.37,13.85,13.85,0,0,1,8.82.91.19.19,0,0,0,.14-.35l0,0a14.17,14.17,0,0,0,0-1.72,30.06,30.06,0,0,0,.85-3.39c.55-2.54,1-2.57,1-2.57s.56.58.67,3C148.85,14.81,148.65,17.62,148.51,19.67Z" style="fill: #3B29AB"></path>
    <path d="M138.54,19.21a.19.19,0,1,0-.11.36c3.51,1.1,5.23,3.11,5.1,6a.19.19,0,1,0,.38,0C144,22.5,142.24,20.37,138.54,19.21Z" style="fill: #3B29AB"></path>
    <path d="M37.93,68.44c-3-.59-4.93-2.61-5.71-6a.19.19,0,0,0-.37.08c.82,3.55,2.83,5.66,6,6.28A.19.19,0,0,0,37.93,68.44Z" style="fill: #3B29AB"></path>
  </g></g></svg>